<svg xmlns="http://www.w3.org/2000/svg" xmlns:xlink="http://www.w3.org/1999/xlink" width="738" height="506.481" viewBox="0 0 738 506.481"><defs><clipPath id="clip-path"><path id="SVGID" d="M776.48,285.727c6.613,17.449,12.619,35.476,19.186,53.086,10.64.35,23.167.5,24.888-12.648,2.386-18.28,33.509-26.781,48.348-27.859,18.355-1.336,57.789-7.9,48.181-33.217-8.03-21.068-21.292-30.876,2.008-45.56s31.96-33.71,19.668-55.718c-12.94-23.162,8.776-56.441-14.879-70.488-41.218-24.487-67.9,45.962-63.439,83.606s-16.6,30.492-40.542,39.1c-32.695,11.747-2.96,41.012-14.454,56.367C796.441,284.414,788.824,282.664,776.48,285.727Z" transform="translate(-776.48 -88.268)" fill="none"></path></clipPath><clipPath id="clip-path-2"><path id="SVGID-2" data-name="SVGID" d="M853.1,288.665q-19.4.539-38.907.206c-.172.218-9.12-26.46,1.371-43.117,20.85-32.368-.878-54.313-8.426-68.257-11.586-19.5-11.988-45.577,11.839-44.866,23.127.155,18.418-46.564,8.306-81.421C820.97,34.5,833.589,10.646,849.013,2.989c15.688-8.237,34.192-.275,45.314,33.3,14.713,38.562-10.187,67.752-17.454,89.658-7.164,21.51,20.322,33.067,3.5,53.963-14,18.406-33.108,33.228-21.986,51.3C869.731,249.03,870.58,265.067,853.1,288.665Z" transform="translate(-799.421 0.013)" fill="none"></path></clipPath><clipPath id="clip-path-3"><path id="SVGID-3" data-name="SVGID" d="M411.065,512.589c-2.294,18.894-3.9,38.218-6.132,57.256-10.457,2.925-22.835,6.114-27.722-6.493-6.8-17.529-39.7-18.4-54.663-15.871-18.521,3.137-59.177,6.195-55.793-21.223,2.822-22.817,13.606-35.758-13.043-44.654s-39.842-25.645-33-50.43c7.2-26.093-22.37-53.791-2.363-73.419,34.9-34.26,78.427,29.058,83.17,67.443s23.8,26.144,49.615,28.886c35.23,3.711,12.883,39.916,27.991,52.34C390.967,516.14,398.108,512.549,411.065,512.589Z" transform="translate(-211.276 -347.927)" fill="none"></path></clipPath><linearGradient id="linear-gradient" y1="0.5" x2="1" y2="0.5" gradientUnits="objectBoundingBox"><stop offset="0" stop-color="#444b8c"></stop><stop offset="1" stop-color="#26264f"></stop></linearGradient><linearGradient id="linear-gradient-2" x1="0" y1="0.5" x2="1" y2="0.5" xlink:href="#linear-gradient"></linearGradient><linearGradient id="linear-gradient-3" x1="0.626" y1="-0.475" x2="-0.07" y2="5.029" gradientUnits="objectBoundingBox"><stop offset="0" stop-color="#311944"></stop><stop offset="1" stop-color="#a03976"></stop></linearGradient><linearGradient id="linear-gradient-4" x1="0.628" y1="-0.475" x2="-0.079" y2="5.029" xlink:href="#linear-gradient-3"></linearGradient><linearGradient id="linear-gradient-5" x1="0.632" y1="-0.472" x2="-0.116" y2="5.025" xlink:href="#linear-gradient-3"></linearGradient><linearGradient id="linear-gradient-6" x1="0.647" y1="-0.477" x2="-0.159" y2="5.028" xlink:href="#linear-gradient-3"></linearGradient><linearGradient id="linear-gradient-7" x1="581.782" y1="-105.237" x2="581.54" y2="-90.935" xlink:href="#linear-gradient-3"></linearGradient><linearGradient id="linear-gradient-8" x1="543.054" y1="-111.143" x2="542.813" y2="-96.093" xlink:href="#linear-gradient-3"></linearGradient><linearGradient id="linear-gradient-9" x1="4.955" y1="-4.209" x2="-3.254" y2="4.46" gradientUnits="objectBoundingBox"><stop offset="0" stop-color="#444b8c"></stop><stop offset="1" stop-color="#3e4177"></stop></linearGradient><linearGradient id="linear-gradient-10" x1="3.991" y1="-3.126" x2="-4.245" y2="5.412" xlink:href="#linear-gradient-9"></linearGradient><linearGradient id="linear-gradient-11" x1="3.02" y1="-2.077" x2="-5.242" y2="6.361" xlink:href="#linear-gradient-9"></linearGradient><linearGradient id="linear-gradient-12" x1="2.043" y1="-1.056" x2="-6.247" y2="7.28" xlink:href="#linear-gradient-9"></linearGradient><linearGradient id="linear-gradient-13" x1="5.372" y1="-4.552" x2="-2.878" y2="3.996" xlink:href="#linear-gradient-9"></linearGradient><linearGradient id="linear-gradient-14" x1="4.405" y1="-3.486" x2="-3.874" y2="4.955" xlink:href="#linear-gradient-9"></linearGradient><linearGradient id="linear-gradient-15" x1="3.431" y1="-2.44" x2="-4.875" y2="5.884" xlink:href="#linear-gradient-9"></linearGradient><linearGradient id="linear-gradient-16" x1="2.449" y1="-1.43" x2="-5.881" y2="6.804" xlink:href="#linear-gradient-9"></linearGradient><linearGradient id="linear-gradient-17" x1="5.792" y1="-4.897" x2="-2.497" y2="3.551" xlink:href="#linear-gradient-9"></linearGradient><linearGradient id="linear-gradient-18" x1="4.821" y1="-3.846" x2="-3.497" y2="4.51" xlink:href="#linear-gradient-9"></linearGradient><linearGradient id="linear-gradient-19" x1="3.845" y1="-2.81" x2="-4.503" y2="5.439" xlink:href="#linear-gradient-9"></linearGradient><linearGradient id="linear-gradient-20" x1="2.86" y1="-1.8" x2="-5.512" y2="6.348" xlink:href="#linear-gradient-9"></linearGradient><linearGradient id="linear-gradient-21" x1="6.221" y1="-5.235" x2="-2.116" y2="3.117" xlink:href="#linear-gradient-9"></linearGradient><linearGradient id="linear-gradient-22" x1="5.245" y1="-4.184" x2="-3.118" y2="4.066" xlink:href="#linear-gradient-9"></linearGradient><linearGradient id="linear-gradient-23" x1="4.263" y1="-3.16" x2="-4.127" y2="4.994" xlink:href="#linear-gradient-9"></linearGradient><linearGradient id="linear-gradient-24" x1="6.653" y1="-5.564" x2="-1.729" y2="2.692" xlink:href="#linear-gradient-9"></linearGradient><linearGradient id="linear-gradient-25" x1="5.671" y1="-4.522" x2="-2.734" y2="3.635" xlink:href="#linear-gradient-9"></linearGradient><linearGradient id="linear-gradient-26" x1="4.686" y1="-3.515" x2="-3.748" y2="4.565" xlink:href="#linear-gradient-9"></linearGradient><linearGradient id="linear-gradient-27" x1="3.456" y1="-0.581" x2="-4.919" y2="2.464" xlink:href="#linear-gradient-9"></linearGradient><linearGradient id="linear-gradient-28" x1="17.668" y1="-2.41" x2="17.848" y2="2.649" gradientUnits="objectBoundingBox"><stop offset="0" stop-color="#26264f"></stop><stop offset="1" stop-color="#444b8c"></stop></linearGradient><linearGradient id="linear-gradient-29" x1="64.886" y1="1.151" x2="64.764" y2="-5.052" gradientUnits="objectBoundingBox"><stop offset="0" stop-color="#ab316d"></stop><stop offset="1" stop-color="#792d3d"></stop></linearGradient><linearGradient id="linear-gradient-30" x1="27.652" y1="-1.485" x2="27.937" y2="1.472" xlink:href="#linear-gradient-28"></linearGradient><linearGradient id="linear-gradient-31" x1="46.201" y1="1.353" x2="46.115" y2="-3.033" xlink:href="#linear-gradient-29"></linearGradient><linearGradient id="linear-gradient-32" x1="0.329" y1="0.554" x2="-0.255" y2="0.738" gradientUnits="objectBoundingBox"><stop offset="0" stop-color="#fcb148"></stop><stop offset="0.05" stop-color="#fdba46"></stop><stop offset="0.14" stop-color="#ffc244"></stop><stop offset="0.32" stop-color="#ffc444"></stop><stop offset="0.48" stop-color="#fdb946"></stop><stop offset="0.78" stop-color="#f99c4d"></stop><stop offset="0.87" stop-color="#f8924f"></stop><stop offset="1" stop-color="#f8924f"></stop></linearGradient><linearGradient id="linear-gradient-33" x1="0.727" y1="0.007" x2="0.207" y2="1.135" gradientUnits="objectBoundingBox"><stop offset="0" stop-color="#ffdb44"></stop><stop offset="1" stop-color="#feef06"></stop></linearGradient><linearGradient id="linear-gradient-34" x1="0.636" y1="1.231" x2="0.531" y2="0.666" xlink:href="#linear-gradient-32"></linearGradient><linearGradient id="linear-gradient-35" x1="0.409" y1="0.31" x2="0.858" y2="1.247" xlink:href="#linear-gradient-32"></linearGradient><linearGradient id="linear-gradient-36" x1="0.253" y1="0.019" x2="0.711" y2="1.039" xlink:href="#linear-gradient-33"></linearGradient><linearGradient id="linear-gradient-37" x1="0.464" y1="0.369" x2="1.215" y2="1.306" xlink:href="#linear-gradient-32"></linearGradient></defs><g id="Group_5513" data-name="Group 5513" transform="translate(-960 -301.519)"><g id="Group_4078" data-name="Group 4078" transform="translate(-45.56 -25.511)"><ellipse id="Ellipse_44" data-name="Ellipse 44" cx="362.653" cy="23.665" rx="362.653" ry="23.665" transform="translate(1018.253 777.028)" fill="#027396" opacity="0.09" style="mix-blend-mode: multiply;isolation: isolate"></ellipse><g id="Asset_6" data-name="Asset 6" transform="translate(1005.56 327.03)"><g id="Layer_2" data-name="Layer 2" transform="translate(0 0)"><g id="_1" data-name=" 1" transform="translate(0 0)"><path id="Path_3888" data-name="Path 3888" d="M109.125,421.4c-11.535-27.016,10.462-45.021-5.856-88.534-9.774-26.058-20.494-27.085-58.581-78.048C-.815,193.946-.574,175.264.166,167.458c3-31.8,30.068-51.933,33.974-54.749C60.358,93.78,89.376,96.436,134.9,99.895c93.6,7.118,140.42,10.674,159.349,9.321,70.947-5.076,72.691-30.194,147.619-43.1,39.314-6.78,130.572-22.5,188.619,20.965,88.86,66.582,87.071,262.366-7.032,343.626-37.105,32.052-102.845,34.57-234.323,39.606C266.6,475.016,133.686,478.917,109.125,421.4Z" transform="translate(0.001 -24.598)" fill="#4986a8" opacity="0.07"></path><path id="Path_3889" data-name="Path 3889" d="M820.434,330.746c-2.707-.218-8.4-3.074-9.579-4.434-7.835-9.034-23.6-24.991-23.466-37.633,0-2.157,9.544-4.623,10.8-6.659,5.69-3.046,7.852-3.751,11.845-9.3,11.764-16.382-18.28-44.648,14.506-56.665,24-8.8,44.987-1.405,40.536-39.107S887.3,68.863,928.521,93.326c23.655,14.036,1.939,47.327,14.879,70.488,12.3,22.009,3.631,41.035-19.668,55.718s-10,24.475-2.008,45.566c9.608,25.335-29.769,31.805-48.181,33.268C858.681,299.5,821.661,312.46,820.434,330.746Z" transform="translate(-335.75 -37.635)" fill="#bde0d4"></path><g id="Group_4072" data-name="Group 4072" transform="translate(445.381 50.637)" clip-path="url(#clip-path)"><path id="Path_3890" data-name="Path 3890" d="M808.3,304.191l-.3-.539c39.17-21.475,70.706-54.388,91.2-95.153,19.5-38.786,28.788-83.933,26.884-130.549h.62c1.9,46.725-7.417,91.975-26.959,130.853C879.2,249.654,847.578,282.647,808.3,304.191Z" transform="translate(-789.92 -83.868)" fill="#fcfdfe"></path><path id="Path_3891" data-name="Path 3891" d="M880.436,414.457l-.206-.574c24.091-8.529,62.894-10.193,86.44-3.705l-.161.573C943.067,404.3,904.453,405.962,880.436,414.457Z" transform="translate(-820.72 -223.846)" fill="#fcfdfe"></path><path id="Path_3892" data-name="Path 3892" d="M834.676,393.9l-.436-.442c9.39-9.332,13.7-23.053,12.808-40.782-.654-13-4.015-27.813-10.049-44.029l.574-.212c6.04,16.273,9.435,31.152,10.089,44.212C848.585,370.56,844.215,384.441,834.676,393.9Z" transform="translate(-801.109 -182.152)" fill="#fcfdfe"></path><path id="Path_3893" data-name="Path 3893" d="M972.053,276.419l-.453-.413c16.8-18.516,42.4-24.487,60.921-26.236l.057.614C1014.166,252.122,988.722,258.053,972.053,276.419Z" transform="translate(-859.681 -157.134)" fill="#fcfdfe"></path><path id="Path_3894" data-name="Path 3894" d="M984.068,154.043h-.614c.287-12.08-2.834-36.44-27.045-63.846l.465-.407C981.218,117.34,984.361,141.872,984.068,154.043Z" transform="translate(-853.204 -88.917)" fill="#fcfdfe"></path></g><g id="Group_4073" data-name="Group 4073" transform="translate(458.54)" clip-path="url(#clip-path-2)"><path id="Path_3895" data-name="Path 3895" d="M853.155,288.665q-19.4.539-38.907.206c-.172.218-9.12-26.46,1.371-43.117,20.85-32.368-.878-54.313-8.426-68.257-11.506-19.5-11.357-42.8,9.82-46.868,23.408-4.973,20.827-44.706,10.325-79.419-6.31-16.714,6.309-40.564,21.733-48.222,15.688-8.237,34.192-.275,45.313,33.3,14.713,38.562-10.187,67.752-17.454,89.658-7.164,21.51,20.322,33.067,3.5,53.963-14,18.406-33.108,33.228-21.986,51.3C869.789,249.03,870.638,265.067,853.155,288.665Z" transform="translate(-799.479 0.013)" fill="#ffca48"></path><path id="Path_3896" data-name="Path 3896" d="M863.159,288.865c-.046-.241,1.864-60,12.78-119.8,1.273-9.59,2.782-19.3,4.239-28.679,3.9-25.146,7.933-51.147,7.606-76.287-.373-28.106-6.269-52.392-18.039-74.326l.574-.293c11.816,22.026,17.735,46.426,18.108,74.607.333,25.181-3.705,51.21-7.612,76.379-1.457,9.39-2.965,19.1-4.233,28.679C865.683,228.8,863.767,288.4,863.8,288.75Z" transform="translate(-826.599 4.493)" fill="#fcfdfe"></path><path id="Path_3897" data-name="Path 3897" d="M904.822,117.458l-.522-.327c11.3-18.068,24.372-43.266,31.375-56.762,5.65-10.9,5.7-10.9,6.04-10.9v.3l.178.247c-.338.344-2.7,4.887-5.679,10.64C929.211,74.18,916.173,99.367,904.822,117.458Z" transform="translate(-844.143 -21.087)" fill="#fcfdfe"></path><path id="Path_3898" data-name="Path 3898" d="M878.345,97.628c-11.265-32.368-34.822-42.084-36.79-42.084h0v-.229l-.275-.287c.143-.132.35-.115.677-.034,5.122,1.233,26.414,12.045,36.991,42.446Z" transform="translate(-817.27 -23.416)" fill="#fcfdfe"></path><path id="Path_3899" data-name="Path 3899" d="M841,312.7c-.941-17-7.967-34.215-20.879-51.187a157.378,157.378,0,0,0-24.028-25c-.665-.574-.9-.763-.987-.86l.47-.4c.063.069.459.4.912.786a157.6,157.6,0,0,1,24.119,25.1c12.992,17.07,20.076,34.415,21,51.526Z" transform="translate(-797.583 -100.306)" fill="#fcfdfe"></path><path id="Path_3900" data-name="Path 3900" d="M880.294,312.215l-.574-.229c10.824-27.068,42.348-34.375,42.732-34.375h0l.275.247-.155.333-.149-.264.029.3C922.154,278.27,891.094,285.2,880.294,312.215ZM922.28,277.65l.149.27Z" transform="translate(-833.661 -118.368)" fill="#fcfdfe"></path><path id="Path_3901" data-name="Path 3901" d="M846.346,467.893c-1-7.285-5.765-19.175-22.726-34.415-.935-.849-.935-.849-.941-1.015h.3l.258-.172c.057.069.4.379.791.734,17.1,15.384,21.905,27.418,22.944,34.811Z" transform="translate(-809.339 -184.326)" fill="#fcfdfe"></path><path id="Path_3902" data-name="Path 3902" d="M865.948,445.034l-.608-.069c.625-5.8,5.025-17.73,27.377-32.391.31-.2.5-.333.574-.384l.373.488c-.075.057-.281.2-.608.407C870.909,427.614,866.567,439.338,865.948,445.034Z" transform="translate(-827.53 -175.755)" fill="#fcfdfe"></path></g><path id="Path_3903" data-name="Path 3903" d="M383.056,566.724c2.627-.872,7.577-5.088,8.415-6.717,5.57-10.852,17.317-30.492,14.116-42.979-.545-2.134-10.583-2.266-12.315-3.981-6.378-1.635-8.69-1.807-13.99-6.338-15.647-13.382,7.244-48.669-28.135-52.627-25.921-2.9-44.918,9.522-49.656-28.915s-48.25-101.692-83.153-67.465c-20.03,19.645,9.568,47.361,2.363,73.448-6.843,24.785,6.361,41.534,33.01,50.43s15.848,21.814,13.038,44.671c-3.367,27.435,37.214,24.291,55.827,21.223C337.57,545.037,377.389,548.9,383.056,566.724Z" transform="translate(-90.083 -148.335)" fill="#bde0d4"></path><g id="Group_4074" data-name="Group 4074" transform="translate(121.186 199.575)" clip-path="url(#clip-path-3)"><path id="Path_3904" data-name="Path 3904" d="M409.5,536.881c-44.166-11.816-83.475-36.83-113.749-72.347-28.8-33.779-49-76.368-58.454-123.1l.608-.12c9.424,46.65,29.62,89.124,58.3,122.823,30.188,35.419,69.4,60.37,113.439,72.152Z" transform="translate(-222.373 -345.106)" fill="#fcfdfe"></path><path id="Path_3905" data-name="Path 3905" d="M303.078,664.836l-.3-.539c21.751-12.137,60.571-19.9,86.537-17.3l-.063.608C363.4,645.018,324.737,652.745,303.078,664.836Z" transform="translate(-250.294 -475.24)" fill="#fcfdfe"></path><path id="Path_3906" data-name="Path 3906" d="M489.06,611.478c-11.724-7.067-19.422-19.754-22.875-37.714-2.518-13.106-2.765-28.679-.728-46.254l.608.075c-2.025,17.523-1.784,33.022.728,46.059,3.441,17.781,11.019,30.337,22.582,37.283Z" transform="translate(-319.08 -424.503)" fill="#fcfdfe"></path><path id="Path_3907" data-name="Path 3907" d="M283.076,537.684c-20.976-14.156-47.608-13.858-66.29-11.111l-.086-.608c18.768-2.765,45.583-3.057,66.72,11.208Z" transform="translate(-213.589 -423.206)" fill="#fcfdfe"></path><path id="Path_3908" data-name="Path 3908" d="M275.762,409.545c-3.241-11.982-6.086-37.054,11.351-70.265l.545.287c-17.334,33.027-14.523,57.933-11.3,69.817Z" transform="translate(-237.736 -344.24)" fill="#fcfdfe"></path></g><path id="Path_3909" data-name="Path 3909" d="M657.288,104.916,339.519,86.561c-7.319-.356-13.909,7.629-13.909,14.34V510.117c0,9.3,9.5,11.168,16.823,10.422l314.9-32.155a11.952,11.952,0,0,0,10.393-11.759v-360.5A11.253,11.253,0,0,0,657.288,104.916Z" transform="translate(-138.843 -36.898)" fill="url(#linear-gradient)"></path><path id="Path_3910" data-name="Path 3910" d="M666.4,101.253,347.969,85.588c-7.319-.344-13.279,4.818-13.279,11.581V509.579c0,6.757,5.96,11.621,13.279,10.9L666.4,487.68a12.014,12.014,0,0,0,10.4-11.85V112.541A11.263,11.263,0,0,0,666.4,101.253Z" transform="translate(-142.715 -36.481)" fill="#d8dee8"></path><path id="Path_3911" data-name="Path 3911" d="M352.51,519.025c-3.946.4-7.17-2.237-7.17-5.879V101.607c0-3.642,3.224-6.453,7.17-6.264l318.434,15.04a6.086,6.086,0,0,1,5.633,6.109V480.463a6.5,6.5,0,0,1-5.633,6.441Z" transform="translate(-147.256 -40.644)" fill="#dbf3fc"></path><path id="Path_3912" data-name="Path 3912" d="M674.726,508.7,402.38,534.942V155.26l272.346,10.262Z" transform="translate(-171.579 -72.231)" fill="#fff"></path><path id="Path_3913" data-name="Path 3913" d="M606.369,135.791,497.53,137.156l2.438-24.55a6.654,6.654,0,0,1,5.524-6.275l18.435-2.834a6.631,6.631,0,0,0,4.99-3.826l2-4.342,48.216,2.977Z" transform="translate(-212.152 -40.642)" fill="#97a6b7" opacity="0.3"></path><path id="Path_3914" data-name="Path 3914" d="M664.492,86.26a5.828,5.828,0,0,0-5.547-4.853l-17.391-.78c-7.892-.356-13.68-6.768-13.393-14.913l.671-18.825a6.1,6.1,0,0,0-5.776-6.47l-5.736-.344c-4.359-.258-7.262-4.1-6.648-8.541a12.907,12.907,0,0,0-11.959-14.988,15.684,15.684,0,0,0-16.152,13.29,8.7,8.7,0,0,1-1.21,3.35,8.948,8.948,0,0,1-8.03,4.285l-5.9-.356a7.818,7.818,0,0,0-7.869,5.822l-4.9,19.106A18.726,18.726,0,0,1,536.048,75.9l-19.078-.855a8.283,8.283,0,0,0-7.629,4.531L497.87,102.395a2.638,2.638,0,0,0,2.294,3.952l165.452,5.495a3.069,3.069,0,0,0,3.011-3.539Zm-68.1-53.407a3.785,3.785,0,0,1-3.528-4.422,4.589,4.589,0,0,1,4.738-3.895,3.786,3.786,0,0,1,3.516,4.422A4.589,4.589,0,0,1,596.389,32.853Z" transform="translate(-212.147 -7.034)" fill="url(#linear-gradient-2)"></path><path id="Path_3915" data-name="Path 3915" d="M666.189,87.15a5.828,5.828,0,0,0-5.547-4.853l-17.391-.78c-7.892-.356-13.68-6.768-13.393-14.913l.671-18.825a6.1,6.1,0,0,0-5.776-6.47l-5.736-.344c-4.354-.258-7.256-4.1-6.642-8.541a12.907,12.907,0,0,0-11.959-14.988A15.7,15.7,0,0,0,584.24,30.7a8.7,8.7,0,0,1-1.21,3.35A8.948,8.948,0,0,1,575,38.337l-5.9-.356a7.818,7.818,0,0,0-7.841,5.845l-4.9,19.106a18.726,18.726,0,0,1-18.607,13.858l-19.077-.855a8.277,8.277,0,0,0-7.629,4.531l-11.5,22.817a2.638,2.638,0,0,0,2.294,3.952L667.3,112.732a3.069,3.069,0,0,0,3.011-3.539Zm-68.1-53.4a3.786,3.786,0,0,1-3.528-4.422,4.589,4.589,0,0,1,4.726-3.9,3.792,3.792,0,0,1,3.516,4.422A4.589,4.589,0,0,1,598.087,33.749Z" transform="translate(-212.864 -7.413)" fill="#97a6b7"></path><path id="Path_3916" data-name="Path 3916" d="M637.9,119.631c-14.758-9.109-26.081-2.65-35.281-12.923-9.843-11-3.2-25.485-13.393-32.316-6.522-4.376-12.338-.516-19.927-1.721A20.889,20.889,0,0,1,560.468,69l-4.084,15.934a18.726,18.726,0,0,1-18.607,13.858L518.7,97.938a8.277,8.277,0,0,0-7.629,4.531l-11.5,22.817a2.639,2.639,0,0,0,2.294,3.952l150.361,5A45.453,45.453,0,0,0,637.9,119.631Z" transform="translate(-212.872 -29.415)" fill="#fff" opacity="0.5"></path><path id="Path_3917" data-name="Path 3917" d="M667.484,249.3l-101.9-1.118V235.96l101.9,1.566Z" transform="translate(-241.169 -106.643)" fill="#97a6b7"></path><path id="Path_3918" data-name="Path 3918" d="M554.891,407.73l-12.481.465V298.14l12.481.029Z" transform="translate(-231.289 -133.157)" fill="#d8dee8"></path><path id="Path_3919" data-name="Path 3919" d="M596.579,432.167l-12.269.453V357.64l12.269-.12Z" transform="translate(-249.155 -158.477)" fill="#d8dee8"></path><path id="Path_3920" data-name="Path 3920" d="M637.547,416.627l-12.057.447v-93.92l12.057-.034Z" transform="translate(-266.715 -143.809)" fill="#d8dee8"></path><path id="Path_3921" data-name="Path 3921" d="M677.82,429.771l-11.85.442V356.065l11.85-.115Z" transform="translate(-283.976 -157.808)" fill="#d8dee8"></path><path id="Path_3922" data-name="Path 3922" d="M717.415,443.67l-11.655.43v-53.39l11.655-.2Z" transform="translate(-300.943 -172.544)" fill="#d8dee8"></path><path id="Path_3923" data-name="Path 3923" d="M756.35,403.67l-11.46.424V298.64l11.46.029Z" transform="translate(-317.629 -133.37)" fill="#d8dee8"></path><path id="Path_3924" data-name="Path 3924" d="M794.641,457.074l-11.271.419V426.077l11.271-.287Z" transform="translate(-334.037 -187.588)" fill="#d8dee8"></path><path id="Path_3925" data-name="Path 3925" d="M832.307,417.328l-11.088.407V334.507l11.088-.057Z" transform="translate(-350.176 -148.64)" fill="#d8dee8"></path><path id="Path_3926" data-name="Path 3926" d="M678.586,549.076,460.72,560.9V549.414L678.586,538.47Z" transform="translate(-196.455 -235.636)" fill="#d8dee8"></path><path id="Path_3927" data-name="Path 3927" d="M678.586,513.7,460.72,523.831V512.336l217.866-9.246Z" transform="translate(-196.455 -220.55)" fill="#d8dee8"></path><path id="Path_3928" data-name="Path 3928" d="M678.586,692.186,460.72,710.873V699.378l217.866-17.8Z" transform="translate(-196.455 -296.66)" fill="#d8dee8"></path><path id="Path_3929" data-name="Path 3929" d="M542.251,597.01v43.644L456,647.2V602.184Z" transform="translate(-194.443 -260.598)" fill="#d8dee8" opacity="0.5"></path><path id="Path_3930" data-name="Path 3930" d="M456,624.267v18.739l86.251-6.55V602.614c-4.927-1.566-10.858-2.231-15.378,1.015-9.487,6.8-8.277,10.325-18.171,9.177-7.743-.889-16.359-1.618-23.007,4.015-4.118,3.487-6.241,7.072-12.177,6.963C467.925,623.693,461.415,620.212,456,624.267Z" transform="translate(-194.443 -256.4)" fill="#d8dee8"></path><path id="Path_3931" data-name="Path 3931" d="M755.745,590.8,641.67,597.988V589.8l114.075-6.843Z" transform="translate(-273.615 -254.607)" fill="#d8dee8"></path><path id="Path_3932" data-name="Path 3932" d="M755.745,620.082,641.67,628v-7.7L755.745,612.7Z" transform="translate(-273.615 -267.289)" fill="#d8dee8"></path><path id="Path_3933" data-name="Path 3933" d="M755.745,649.491,641.67,658.152v-8.185l114.075-8.317Z" transform="translate(-273.615 -279.633)" fill="#d8dee8"></path><path id="Path_3934" data-name="Path 3934" d="M486.846,307.534l-27.1.023V297.1l27.1.075Z" transform="translate(-196.042 -132.713)" fill="#d8dee8"></path><path id="Path_3935" data-name="Path 3935" d="M486.846,352.209l-27.1.27V342.022l27.1-.172Z" transform="translate(-196.042 -151.795)" fill="#d8dee8"></path><path id="Path_3936" data-name="Path 3936" d="M486.846,395.769l-27.1.516V385.823l27.1-.413Z" transform="translate(-196.042 -170.37)" fill="#d8dee8"></path><path id="Path_3937" data-name="Path 3937" d="M486.846,440.389l-27.1.763V430.69l27.1-.66Z" transform="translate(-196.042 -189.396)" fill="#d8dee8"></path><path id="Path_3938" data-name="Path 3938" d="M486.846,483.949l-27.1,1V474.491l27.1-.9Z" transform="translate(-196.042 -207.971)" fill="#d8dee8"></path><path id="Path_3939" data-name="Path 3939" d="M401.765,503.021l-.51,172.748A17.573,17.573,0,0,1,385.8,692.822L259.51,705.745c-9.751,1-17.69-5.736-17.69-14.839V504.966c0-8.633,7.061-15.751,16.026-16.634.574-.057,1.147-.075,1.721-.08l126.763-.6a15.252,15.252,0,0,1,15.435,15.372Z" transform="translate(-103.114 -207.931)" fill="#215069"></path><path id="Path_3940" data-name="Path 3940" d="M418.134,502.87,417.6,675.079a17.148,17.148,0,0,1-15,16.961L277.175,704.877c-9.659.992-17.965-5.673-17.965-14.758l.029-185.315c0-8.6,7.21-15.7,16.112-16.56.574-.057,1.342-.074,1.922-.08l125.9-.574C411.727,487.527,418.157,494.364,418.134,502.87Z" transform="translate(-110.529 -207.906)" fill="#a9c9e5"></path><path id="Path_3941" data-name="Path 3941" d="M418.152,502.64l-.132,43.283-158.77,5.214V504.556c0-8.4,6.883-15.229,15.487-16.353a22.242,22.242,0,0,1,2.552,0l125.9-.574A14.62,14.62,0,0,1,418.152,502.64Z" transform="translate(-110.547 -207.923)" fill="#91b8d5"></path><path id="Path_3942" data-name="Path 3942" d="M418.051,561.962l-.057,17.982c-15.4,4.875-43.753,8.816-76.287,10.066-14.34.574-28.255.533-40.805,0-16.714-.694-30.83-2.294-41.671-4.508V566.161c4.078-1,7.824-1.933,12.275-2.811,9.665-1.91,21.3-3.516,34.025-4.7,11.363-1.061,23.695-1.778,36.411-2.071,16.37-.379,31.547,0,44.631.946l3.017.235c3.126.252,6.126.574,8.977.872,1.01.109,2,.229,2.977.356,2.237.281,4.159.574,6.195.906Q413.64,560.827,418.051,561.962Z" transform="translate(-110.538 -237.263)" fill="#91b8d5"></path><path id="Path_3943" data-name="Path 3943" d="M418.438,548.217a4.864,4.864,0,0,1-4.686,4.807L283.444,557.01a4.961,4.961,0,0,1-5.294-4.812V521.075a5.228,5.228,0,0,1,5.3-5.042l130.4-1.583a4.589,4.589,0,0,1,4.663,4.589Z" transform="translate(-118.606 -219.359)" fill="#fff"></path><path id="Path_3944" data-name="Path 3944" d="M416.475,548.544a3.069,3.069,0,0,1-2.966,3.034L283.844,555.4a3.132,3.132,0,0,1-3.344-3.04V521.385a3.3,3.3,0,0,1,3.35-3.183L413.6,516.55a2.9,2.9,0,0,1,2.954,2.914Z" transform="translate(-119.608 -220.255)" fill="#bde0d4"></path><path id="Path_3945" data-name="Path 3945" d="M484.063,536.765a1.388,1.388,0,0,1-1.48,1.348h-.069a1.325,1.325,0,0,1-1.474-1.291v-6.005a1.451,1.451,0,0,1,1.48-1.428h.069a1.394,1.394,0,0,1,1.474,1.388Z" transform="translate(-205.12 -225.728)" opacity="0.3" fill="url(#linear-gradient-3)"></path><path id="Path_3946" data-name="Path 3946" d="M505.038,536.4a1.394,1.394,0,0,1-1.463,1.365h-.069a1.331,1.331,0,0,1-1.457-1.308v-5.988a1.457,1.457,0,0,1,1.463-1.44h.069a1.388,1.388,0,0,1,1.457,1.394Z" transform="translate(-214.079 -225.575)" opacity="0.3" fill="url(#linear-gradient-4)"></path><g id="Group_4075" data-name="Group 4075" transform="translate(275.897 315.958)" opacity="0.3"><path id="Path_3947" data-name="Path 3947" d="M484.017,559.912a1.641,1.641,0,0,1-1.486,1.635h-.063A1.543,1.543,0,0,1,481,559.992V553.8a1.617,1.617,0,0,1,1.48-1.618h.069a1.526,1.526,0,0,1,1.474,1.549Z" transform="translate(-481 -551.406)" fill="url(#linear-gradient-5)"></path><path id="Path_3948" data-name="Path 3948" d="M504.978,559.1c0,.8-.66,1.055-1.463,1.721h-.069a1.6,1.6,0,0,1-1.457-1.623v-6.447c0-.8.654-1.9,1.463-1.916h.069c.809,0,1.457,1.044,1.457,1.847Z" transform="translate(-489.95 -550.83)" fill="url(#linear-gradient-6)"></path></g><g id="Group_4076" data-name="Group 4076" transform="translate(279.098 299.96)" opacity="0.3"><path id="Path_3949" data-name="Path 3949" d="M495.672,524.437a1.382,1.382,0,0,1-1.331,1.485l-5.644.1c-.814,0-1.027-.637-1.027-1.44v-.069c0-.809.287-1.468,1.1-1.48l5.765-.092c.809,0,1.147.625,1.147,1.434Z" transform="translate(-487.045 -522.94)" fill="url(#linear-gradient-7)"></path><path id="Path_3950" data-name="Path 3950" d="M495.207,569.09a1.434,1.434,0,0,1-1.365,1.5l-5.931.166a1.3,1.3,0,0,1-1.325-1.422v-.063a1.434,1.434,0,0,1,1.382-1.5l5.931-.166a1.285,1.285,0,0,1,1.308,1.411Z" transform="translate(-486.58 -541.988)" fill="url(#linear-gradient-8)"></path></g><path id="Path_3951" data-name="Path 3951" d="M351.45,686.44A34.784,34.784,0,0,1,348.812,695c-.453.975-.964,2-1.526,3.046l-70.081,7.17c-9.659.992-17.965-5.673-17.965-14.758l.029-185.579c0-8.4,6.883-15.372,15.487-16.5.212.063.522.126.734.189,9.045,2.736,18.928,7.841,24.779,17.385,3.677,5.96,5.862,13.669,5.375,23.672a68.438,68.438,0,0,1-.918,8.242c-.293,1.686-.574,3.441-.878,5.162q-.573,3.292-1.1,6.734c-.574,3.659-1.084,7.417-1.5,11.214-.4,3.636-.706,7.313-.855,10.979-.029.706-.052,1.417-.069,2.122q-.092,3.441.029,6.837.086,2.323.281,4.589c.751,8.6,2.765,16.732,6.809,23.81,3.057,5.34,7.652,9.407,12.476,13.193,1.273.987,2.564,1.956,3.843,2.92a103.3,103.3,0,0,1,12.286,10.6l.275.287a59.03,59.03,0,0,1,5.036,6.017,44.118,44.118,0,0,1,4.354,7.5c.465,1,.895,2.03,1.3,3.063.688,1.784,1.279,3.608,1.8,5.478.229.837.459,1.686.671,2.547a.681.681,0,0,1,.029.1,88.479,88.479,0,0,1,2.088,10.606A48.942,48.942,0,0,1,351.45,686.44Z" transform="translate(-110.542 -208.243)" fill="#fff" opacity="0.3"></path><g id="Group_4077" data-name="Group 4077" transform="translate(159.487 358.513)"><path id="Path_3952" data-name="Path 3952" d="M308.7,644.613a3.614,3.614,0,0,1-3.487,3.47L281.7,649.23a3.258,3.258,0,0,1-3.568-3.166v-8.415a3.654,3.654,0,0,1,3.573-3.5l23.517-1a3.224,3.224,0,0,1,3.482,3.155Z" transform="translate(-278.084 -628.484)" fill="url(#linear-gradient-9)"></path><path id="Path_3953" data-name="Path 3953" d="M375.741,641.624a3.51,3.51,0,0,1-3.367,3.413l-22.7,1.147a3.178,3.178,0,0,1-3.442-3.12v-8.288a3.556,3.556,0,0,1,3.442-3.441l22.708-.969a3.143,3.143,0,0,1,3.361,3.1Z" transform="translate(-307.123 -627.297)" fill="url(#linear-gradient-10)"></path><path id="Path_3954" data-name="Path 3954" d="M438.327,638.744a3.441,3.441,0,0,1-3.258,3.35l-21.963,1.084a3.1,3.1,0,0,1-3.327-3.069v-8.156a3.442,3.442,0,0,1,3.338-3.378l21.963-.929a3.052,3.052,0,0,1,3.247,3.052Z" transform="translate(-334.221 -626.138)" fill="url(#linear-gradient-11)"></path><path id="Path_3955" data-name="Path 3955" d="M500.98,635.942a3.35,3.35,0,0,1-3.155,3.292L476.6,640.278a3.006,3.006,0,0,1-3.212-3.017v-8.03a3.384,3.384,0,0,1,3.218-3.3l21.223-.9a2.971,2.971,0,0,1,3.138,3.006Z" transform="translate(-361.345 -625.022)" fill="url(#linear-gradient-12)"></path><path id="Path_3956" data-name="Path 3956" d="M308.657,691.235a3.659,3.659,0,0,1-3.482,3.51l-23.517,1.44a3.212,3.212,0,0,1-3.568-3.12v-8.432a3.705,3.705,0,0,1,3.568-3.539l23.517-1.285a3.178,3.178,0,0,1,3.482,3.109Z" transform="translate(-278.067 -648.377)" fill="url(#linear-gradient-13)"></path><path id="Path_3957" data-name="Path 3957" d="M375.675,687.412a3.562,3.562,0,0,1-3.367,3.441l-22.7,1.4a3.132,3.132,0,0,1-3.442-3.074V680.9a3.6,3.6,0,0,1,3.441-3.476l22.7-1.239a3.086,3.086,0,0,1,3.355,3.057Z" transform="translate(-307.097 -646.832)" fill="url(#linear-gradient-14)"></path><path id="Path_3958" data-name="Path 3958" d="M438.236,683.815a3.476,3.476,0,0,1-3.258,3.384l-21.951,1.348a3.046,3.046,0,0,1-3.327-3.023v-8.145a3.51,3.51,0,0,1,3.338-3.441l21.951-1.2a3.006,3.006,0,0,1,3.247,3.011Z" transform="translate(-334.187 -645.362)" fill="url(#linear-gradient-15)"></path><path id="Path_3959" data-name="Path 3959" d="M500.85,680.256a3.4,3.4,0,0,1-3.155,3.327l-21.223,1.3a2.96,2.96,0,0,1-3.212-2.977v-8.03a3.442,3.442,0,0,1,3.224-3.356l21.223-1.147a2.931,2.931,0,0,1,3.137,2.966Z" transform="translate(-361.289 -643.931)" fill="url(#linear-gradient-16)"></path><path id="Path_3960" data-name="Path 3960" d="M308.617,736.734a3.717,3.717,0,0,1-3.482,3.55l-23.517,1.721a3.172,3.172,0,0,1-3.568-3.074V730.5a3.757,3.757,0,0,1,3.568-3.579l23.517-1.56a3.132,3.132,0,0,1,3.482,3.063Z" transform="translate(-278.05 -667.801)" fill="url(#linear-gradient-17)"></path><path id="Path_3961" data-name="Path 3961" d="M375.614,732.144a3.619,3.619,0,0,1-3.367,3.482l-22.686,1.664a3.08,3.08,0,0,1-3.442-3.029v-8.277a3.66,3.66,0,0,1,3.442-3.51l22.708-1.486A3.04,3.04,0,0,1,375.625,724Z" transform="translate(-307.076 -665.936)" fill="url(#linear-gradient-18)"></path><path id="Path_3962" data-name="Path 3962" d="M438.149,727.829a3.533,3.533,0,0,1-3.258,3.441l-21.94,1.606a3,3,0,0,1-3.321-2.983v-8.139a3.562,3.562,0,0,1,3.338-3.442l21.94-1.463a2.965,2.965,0,0,1,3.247,2.971Z" transform="translate(-334.157 -664.173)" fill="url(#linear-gradient-19)"></path><path id="Path_3963" data-name="Path 3963" d="M500.724,723.508a3.441,3.441,0,0,1-3.155,3.367l-21.223,1.554a2.925,2.925,0,0,1-3.206-2.937v-8a3.482,3.482,0,0,1,3.224-3.39l21.223-1.411a2.868,2.868,0,0,1,3.138,2.925Z" transform="translate(-361.238 -662.399)" fill="url(#linear-gradient-20)"></path><path id="Path_3964" data-name="Path 3964" d="M308.606,781.108a3.768,3.768,0,0,1-3.482,3.591l-23.483,1.99a3.126,3.126,0,0,1-3.562-3.034V775.24a3.809,3.809,0,0,1,3.568-3.614l23.488-1.835a3.08,3.08,0,0,1,3.476,3.017Z" transform="translate(-278.063 -686.742)" fill="url(#linear-gradient-21)"></path><path id="Path_3965" data-name="Path 3965" d="M375.552,775.708a3.665,3.665,0,0,1-3.367,3.516l-22.674,1.927a3.04,3.04,0,0,1-3.442-2.988V769.9a3.706,3.706,0,0,1,3.442-3.551l22.68-1.772a3,3,0,0,1,3.356,2.971Z" transform="translate(-307.054 -684.519)" fill="url(#linear-gradient-22)"></path><path id="Path_3966" data-name="Path 3966" d="M438.057,770.7a3.573,3.573,0,0,1-3.258,3.442l-21.928,1.864a2.96,2.96,0,0,1-3.321-2.943v-8.134a3.613,3.613,0,0,1,3.333-3.482l21.934-1.721a2.925,2.925,0,0,1,3.247,2.925Z" transform="translate(-334.123 -682.454)" fill="url(#linear-gradient-23)"></path><path id="Path_3967" data-name="Path 3967" d="M308.575,828.682a3.814,3.814,0,0,1-3.482,3.625L281.622,834.6a3.082,3.082,0,0,1-3.562-2.988V823.2a3.855,3.855,0,0,1,3.562-3.654l23.477-2.128a3.046,3.046,0,0,1,3.476,2.977Z" transform="translate(-278.054 -707.048)" fill="url(#linear-gradient-24)"></path><path id="Path_3968" data-name="Path 3968" d="M375.477,822.5a3.717,3.717,0,0,1-3.361,3.556l-22.674,2.2A2.988,2.988,0,0,1,346,825.318v-8.26a3.768,3.768,0,0,1,3.442-3.591l22.668-2.048a2.948,2.948,0,0,1,3.35,2.925Z" transform="translate(-307.025 -704.492)" fill="url(#linear-gradient-25)"></path><path id="Path_3969" data-name="Path 3969" d="M437.966,816.731a3.631,3.631,0,0,1-3.258,3.493l-21.917,2.134a2.914,2.914,0,0,1-3.321-2.868v-8.122a3.671,3.671,0,0,1,3.338-3.522l21.923-1.985a2.868,2.868,0,0,1,3.241,2.868Z" transform="translate(-334.089 -702.124)" fill="url(#linear-gradient-26)"></path><path id="Path_3970" data-name="Path 3970" d="M497.373,754.992l-21.223,1.652c-1.778.143-3.115,2.145-3.12,3.9v8.26l-.04,16.978v8.254a2.976,2.976,0,0,0,3.1,3.143l21.188-2.059a3.958,3.958,0,0,0,3.258-3.723v-8.145l.046-16.789v-8.156A3.231,3.231,0,0,0,497.373,754.992Z" transform="translate(-361.175 -680.438)" fill="url(#linear-gradient-27)"></path></g><path id="Path_3971" data-name="Path 3971" d="M311.008,644.477a3.6,3.6,0,0,1-3.482,3.47l-23.489,1.147a3.264,3.264,0,0,1-3.568-3.166V637.52a3.654,3.654,0,0,1,3.568-3.5l23.517-1a3.223,3.223,0,0,1,3.476,3.155Z" transform="translate(-119.595 -269.916)" fill="#215069"></path><path id="Path_3972" data-name="Path 3972" d="M375.741,641.624a3.51,3.51,0,0,1-3.367,3.413l-22.7,1.147a3.178,3.178,0,0,1-3.442-3.12v-8.288a3.556,3.556,0,0,1,3.442-3.441l22.708-.969a3.143,3.143,0,0,1,3.361,3.1Z" transform="translate(-147.636 -268.783)" fill="#215069"></path><path id="Path_3973" data-name="Path 3973" d="M440.489,638.668a3.442,3.442,0,0,1-3.258,3.344L415.3,643.1a3.1,3.1,0,0,1-3.327-3.069v-8.151a3.442,3.442,0,0,1,3.338-3.373l21.934-.929a3.051,3.051,0,0,1,3.246,3.052Z" transform="translate(-175.668 -267.595)" fill="#215069"></path><path id="Path_3974" data-name="Path 3974" d="M503.044,635.873a3.35,3.35,0,0,1-3.155,3.292l-21.223,1.044a3.005,3.005,0,0,1-3.206-3.017v-8.03a3.384,3.384,0,0,1,3.229-3.315l21.223-.9a2.966,2.966,0,0,1,3.132,3Z" transform="translate(-202.741 -266.474)" fill="#215069"></path><path id="Path_3975" data-name="Path 3975" d="M310.981,691.1a3.665,3.665,0,0,1-3.482,3.51l-23.477,1.44a3.212,3.212,0,0,1-3.562-3.12V684.5a3.705,3.705,0,0,1,3.568-3.539l23.483-1.285a3.178,3.178,0,0,1,3.476,3.109Z" transform="translate(-119.591 -289.809)" fill="#215069"></path><path id="Path_3976" data-name="Path 3976" d="M375.675,687.412a3.562,3.562,0,0,1-3.367,3.441l-22.7,1.4a3.132,3.132,0,0,1-3.442-3.074V680.9a3.6,3.6,0,0,1,3.441-3.476l22.7-1.239a3.086,3.086,0,0,1,3.355,3.057Z" transform="translate(-147.61 -288.318)" fill="#215069"></path><path id="Path_3977" data-name="Path 3977" d="M440.392,683.715a3.441,3.441,0,0,1-3.252,3.384l-21.923,1.348a3.046,3.046,0,0,1-3.327-3.023v-8.145a3.516,3.516,0,0,1,3.333-3.407l21.968-1.2a3.012,3.012,0,0,1,3.247,3.006Z" transform="translate(-175.634 -286.824)" fill="#215069"></path><path id="Path_3978" data-name="Path 3978" d="M502.948,680.13a3.4,3.4,0,0,1-3.149,3.327l-21.183,1.3a2.96,2.96,0,0,1-3.206-2.977v-8.03a3.442,3.442,0,0,1,3.224-3.35l21.223-1.147a2.925,2.925,0,0,1,3.132,2.96Z" transform="translate(-202.719 -285.367)" fill="#215069"></path><path id="Path_3979" data-name="Path 3979" d="M310.944,736.552a3.7,3.7,0,0,1-3.476,3.545L284,741.817a3.166,3.166,0,0,1-3.562-3.074v-8.4A3.746,3.746,0,0,1,284,726.772l23.471-1.566a3.132,3.132,0,0,1,3.476,3.063Z" transform="translate(-119.582 -309.22)" fill="#215069"></path><path id="Path_3980" data-name="Path 3980" d="M375.614,732.144a3.619,3.619,0,0,1-3.367,3.482l-22.686,1.664a3.08,3.08,0,0,1-3.442-3.029v-8.277a3.66,3.66,0,0,1,3.442-3.51l22.708-1.486A3.04,3.04,0,0,1,375.625,724Z" transform="translate(-147.589 -307.422)" fill="#215069"></path><path id="Path_3981" data-name="Path 3981" d="M440.3,727.7a3.522,3.522,0,0,1-3.252,3.442l-21.917,1.606a2.994,2.994,0,0,1-3.315-2.983v-8.133a3.568,3.568,0,0,1,3.333-3.442l21.917-1.457a2.972,2.972,0,0,1,3.247,2.966Z" transform="translate(-175.604 -305.609)" fill="#215069"></path><path id="Path_3982" data-name="Path 3982" d="M502.818,723.377a3.441,3.441,0,0,1-3.149,3.355L478.486,728.3a2.919,2.919,0,0,1-3.206-2.937v-8a3.47,3.47,0,0,1,3.224-3.384l21.183-1.411a2.868,2.868,0,0,1,3.132,2.925Z" transform="translate(-202.664 -303.835)" fill="#215069"></path><path id="Path_3983" data-name="Path 3983" d="M310.912,780.923a3.757,3.757,0,0,1-3.476,3.585l-23.454,1.99a3.12,3.12,0,0,1-3.562-3.029v-8.414a3.8,3.8,0,0,1,3.562-3.614l23.46-1.83a3.086,3.086,0,0,1,3.476,3.017Z" transform="translate(-119.574 -328.153)" fill="#215069"></path><path id="Path_3984" data-name="Path 3984" d="M375.552,775.708a3.665,3.665,0,0,1-3.367,3.516l-22.674,1.927a3.04,3.04,0,0,1-3.442-2.988V769.9a3.706,3.706,0,0,1,3.442-3.551l22.68-1.772a3,3,0,0,1,3.356,2.971Z" transform="translate(-147.568 -326.006)" fill="#215069"></path><path id="Path_3985" data-name="Path 3985" d="M440.219,770.56A3.579,3.579,0,0,1,436.961,774l-21.9,1.893a2.954,2.954,0,0,1-3.321-2.937V764.83a3.613,3.613,0,0,1,3.333-3.482l21.911-1.721a2.925,2.925,0,0,1,3.241,2.925Z" transform="translate(-175.57 -323.899)" fill="#215069"></path><path id="Path_3986" data-name="Path 3986" d="M310.885,828.476a3.815,3.815,0,0,1-3.476,3.619l-23.443,2.294a3.076,3.076,0,0,1-3.556-2.983v-8.414a3.86,3.86,0,0,1,3.562-3.654l23.448-2.122a3.028,3.028,0,0,1,3.47,2.971Z" transform="translate(-119.569 -348.448)" fill="#215069"></path><path id="Path_3987" data-name="Path 3987" d="M375.477,822.5a3.717,3.717,0,0,1-3.361,3.556l-22.674,2.2A2.988,2.988,0,0,1,346,825.318v-8.26a3.768,3.768,0,0,1,3.442-3.591l22.668-2.048a2.948,2.948,0,0,1,3.35,2.925Z" transform="translate(-147.538 -345.979)" fill="#215069"></path><path id="Path_3988" data-name="Path 3988" d="M440.121,816.532a3.631,3.631,0,0,1-3.252,3.493l-21.894,2.128a2.908,2.908,0,0,1-3.315-2.868v-8.116a3.671,3.671,0,0,1,3.333-3.522l21.9-1.985a2.868,2.868,0,0,1,3.235,2.868Z" transform="translate(-175.536 -343.526)" fill="#215069"></path><path id="Path_3989" data-name="Path 3989" d="M499.513,754.774l-21.177,1.652c-1.778.138-3.155,2.151-3.16,3.9v8.254l-.046,16.967V793.8a3.018,3.018,0,0,0,3.138,3.138l21.165-2.059a3.9,3.9,0,0,0,3.212-3.711v-8.145l.052-16.749v-8.151A3.263,3.263,0,0,0,499.513,754.774Z" transform="translate(-202.6 -321.833)" fill="#215069"></path><path id="Path_3990" data-name="Path 3990" d="M781.344,863.531s-15.051,6.843-15.3,7.938,9.682-.367,13.732-.212,7.388-1.038,7.021-2.753-1.79-6.034-1.79-6.034Z" transform="translate(-326.648 -367.759)" fill="url(#linear-gradient-28)"></path><path id="Path_3991" data-name="Path 3991" d="M791.76,854.022l.918,6.78s2.38.849,3.981-.155l.683-7.457Z" transform="translate(-337.614 -363.802)" fill="url(#linear-gradient-29)"></path><path id="Path_3992" data-name="Path 3992" d="M907.255,854.93l1.721,2.811a3.355,3.355,0,0,1,.4,2.627c-.614,2.34-1.836,6.883-2.369,8.082-.729,1.618-10.468,2.576-10.468,2.576s-.872-1.222,1.147-2.7,3.321-1.721,4.015-3.889a62.029,62.029,0,0,0,1.245-8.323Z" transform="translate(-382.214 -364.544)" fill="url(#linear-gradient-30)"></path><path id="Path_3993" data-name="Path 3993" d="M902.65,841.873c.642.51,3.768,10.009,3.768,10.009s1.015,1.3,2.937-.62.872-.855.872-.855l-.361-9.338Z" transform="translate(-384.899 -358.634)" fill="url(#linear-gradient-31)"></path><path id="Path_3994" data-name="Path 3994" d="M776.9,610.244c-.791,20.213-.826,42.182.339,65.647,1.308,26.425,3.941,50.849,7.256,72.989,1.233.034,2.529.046,3.883,0,.912,0,1.8-.069,2.656-.126a168.759,168.759,0,0,0,5.581-17.844,171.835,171.835,0,0,0,3.895-20.884c2.868-22.9-.5-24.9,1.853-41.872,2.082-15.034,5.048-15.619,8.523-36.956,3.774-23.156.964-26.632-.4-27.882C804.665,597.98,791,601.617,776.9,610.244Z" transform="translate(-331.034 -256.188)" fill="#4986a8"></path><path id="Path_3995" data-name="Path 3995" d="M812.353,603.331c-5.547-5.1-18.234-2.013-31.633,5.736,15.412,16.634,17.093,27.458,15.246,34.467-2.088,7.921-8.438,10.2-8.414,18.871,0,10.646,9.642,13.462,9.435,24.733-.132,7.457-4.359,7.371-5.352,16.571-1.182,10.9,4.336,14.638,2.547,22.691-.769,3.442-2.96,8-9.212,12.659.453,3.31.912,6.585,1.394,9.8,1.233.034,2.53.046,3.883,0,.912,0,1.8-.069,2.656-.126a169.005,169.005,0,0,0,5.581-17.839A172.076,172.076,0,0,0,802.379,710c2.868-22.9-.5-24.9,1.853-41.872,2.082-15.034,5.047-15.619,8.523-36.956C816.529,608.057,813.719,604.581,812.353,603.331Z" transform="translate(-332.907 -256.193)" fill="#215069"></path><path id="Path_3996" data-name="Path 3996" d="M794,608.309a453.929,453.929,0,0,1,62.234,133.21,8.155,8.155,0,0,0,4.445.688,8.265,8.265,0,0,0,5.03-2.719,130.664,130.664,0,0,0,1.147-32.241,111.078,111.078,0,0,0-4.531-24.229c-3.665-11.822-6.183-12.481-10.961-24.986-4.967-12.98-3.763-16.221-8.512-32.465a215.125,215.125,0,0,0-10.611-28.479Z" transform="translate(-338.57 -254.598)" fill="#4986a8"></path><path id="Path_3997" data-name="Path 3997" d="M674.488,365.184s-2.576-3.086-4.222-5.38-9.177-8.684-9.177-8.684-.574,1.05,1.09,2.679,5.059,4.405,4.313,5.627-2.9,2.335-1.279,4.589,4.319.625,5.736,2.421,2.914,3.757,2.914,3.757Z" transform="translate(-281.854 -149.714)" fill="#ce8253"></path><path id="Path_3998" data-name="Path 3998" d="M681.312,370l-5.162,6.47a96.285,96.285,0,0,0,17.781,37.748c11.546,14.747,36.165,36.836,51.491,29.6,9.344-4.417,21.957-19.559,17.426-26.867-4.359-7.021-23.213-3.7-36.136-6.625C713.99,407.45,697.51,398.215,681.312,370Z" transform="translate(-288.317 -157.765)" fill="#ffc948"></path><path id="Path_3999" data-name="Path 3999" d="M874.938,467.74s10.044,34.186,3.82,47.338-26.058-1.3-26.058-1.3Z" transform="translate(-363.6 -199.442)" fill="#f4b840"></path><path id="Path_4000" data-name="Path 4000" d="M871.7,467.81s10.043,34.186,3.82,47.338-26.058-1.291-26.058-1.291Z" transform="translate(-362.218 -199.472)" fill="#ffc948"></path><path id="Path_4001" data-name="Path 4001" d="M802.786,445.664c-12.9-.235-22.835.189-28.33,5.925-5.8,6.051.338,12.619-.608,28.146-1.457,23.781-16.456,29.907-17.07,54.015a61.511,61.511,0,0,0,2.467,18.693,64.731,64.731,0,0,0,17.093,14.483c11.822,6.843,18.561,5.455,35.419,9.676,27.573,6.883,30.205,15.785,43.748,13.193,13.686-2.6,25.484-14.426,23.9-20.741-.958-3.78-6.47-2.587-12.975-8.242-8.38-7.3-5.363-14.495-11.787-22.37-9.223-11.34-21.573-4.015-29.437-13.841-7.956-9.946-5.323-29.941.964-40.943,4.1-7.187,5.736-15.544,9.206-23.058a5.208,5.208,0,0,0,.436-2.908c-.694-4.835-8.828-7.285-14.988-9.08A73.236,73.236,0,0,0,802.786,445.664Z" transform="translate(-322.691 -190.008)" fill="#ffc948"></path><path id="Path_4002" data-name="Path 4002" d="M815.13,444.627l2.524-.837s.74,3.442,8.925,3.677a12.222,12.222,0,0,0,7.4-2.7l1.761,1.228s-3.706,4.847-9.751,4.853A12.154,12.154,0,0,1,815.13,444.627Z" transform="translate(-347.58 -189.229)" fill="#bde0d4"></path><path id="Path_4003" data-name="Path 4003" d="M818.637,417.01a10.86,10.86,0,0,1,1.876-7.663c1.933-2.9,2.392-3.281,3.235-3.74l1.147-.573.132-.034a12.619,12.619,0,0,1,3.614.109c1.526.47,2.6,6.952,1.313,15.865.057.7.12,1.394.184,2.094,3.442-.476,4.468-.149,4.652.315.384,1.009-2.03,6.883-5.334,8.03-4.147,1.451-9.917-2.329-10.267-3.7-.138-.574-.115-.08,2.707-1.721.258-.82,1.067-3.04,1.325-3.86C822.635,421.743,819.147,419.747,818.637,417.01Z" transform="translate(-349.016 -172.654)" fill="#ce8253"></path><path id="Path_4004" data-name="Path 4004" d="M826.057,420.453c.769-.872,1.881.115,1.778,1.325a2.209,2.209,0,0,1-2.507,2.013C824.211,423.447,825.019,421.623,826.057,420.453Z" transform="translate(-351.699 -179.137)" fill="#ce8253"></path><path id="Path_4005" data-name="Path 4005" d="M948.97,349.361c-16.829-9.522-44.654,3.527-57.25,19.577-5.856,7.457-7.778,14.661-16.451,18.011-6.6,2.541-18.1,3.441-26.07-2.013-1-.688-5.082-3.619-10.9-7.1-2.57-1.531-5.082-2.937-8.122-2.461-.769.12-3.344.51-4.457,2.61a5.973,5.973,0,0,0,.4,5.512c.539.883.872.889,1.032,1.531.447,1.8-2.518,3.608-2.053,4.44.333.574,1.933-.178,2.478.528s-1,2.111-1.084,4.56c-1.147,1.468-1.3,4.233-.574,7.634a31.636,31.636,0,0,0,4.709,11.472c9.017,12.848,15.487,22.043,24.951,25.284,12.562,4.29,19.439-5.615,44.855-15.017,34.805-12.866,47.453-3.734,57.5-16C970.5,392.592,966.447,359.249,948.97,349.361Z" transform="translate(-351.811 -147.588)" fill="#1a1a1a"></path><path id="Path_4006" data-name="Path 4006" d="M845.8,584.19c-12.975-8.6-24.716,1.239-33.888-6.355-7.554-6.252-1.359-14.409-9.533-25.416-8.959-12.045-21.395-8.982-24.36-18-3.063-9.321,9.229-15.648,9.533-28.594.155-6.608-2.811-15.212-14.655-25.53a59.62,59.62,0,0,1,.935,14.231c-1.457,23.781-16.456,29.907-17.07,54.015a61.51,61.51,0,0,0,2.467,18.693,64.727,64.727,0,0,0,17.093,14.483c11.822,6.843,18.561,5.455,35.419,9.677,27.573,6.883,30.205,15.785,43.748,13.193a36.035,36.035,0,0,0,11.087-4.2,21.558,21.558,0,0,1-9.126-3.5C851.532,592.8,852.588,588.687,845.8,584.19Z" transform="translate(-322.683 -204.793)" fill="#f4b840"></path><path id="Path_4007" data-name="Path 4007" d="M390.966,119.786c0,29.706-23.23,53.068-52.914,52.162-30.9-.952-56.883-27.636-56.883-59.567s25.984-55.11,56.883-51.893C367.736,63.58,390.966,90.08,390.966,119.786Z" transform="translate(-119.893 -25.658)" fill="url(#linear-gradient-32)"></path><path id="Path_4008" data-name="Path 4008" d="M404.956,115.317c0,29.706-23.23,53.074-52.919,52.162-30.894-.946-56.877-27.63-56.877-59.562s25.984-55.11,56.877-51.9C381.726,59.111,404.956,85.61,404.956,115.317Z" transform="translate(-125.859 -23.753)" fill="url(#linear-gradient-33)"></path><path id="Path_4009" data-name="Path 4009" d="M404.618,117.067c0,28.4-22.221,50.7-50.585,49.776-29.46-.952-54.193-26.385-54.193-56.843S324.6,57.448,354.033,60.465C382.4,63.373,404.618,88.669,404.618,117.067Z" transform="translate(-127.855 -25.658)" fill="url(#linear-gradient-34)"></path><path id="Path_4010" data-name="Path 4010" d="M404.368,118.311c0,27.463-21.5,49-48.916,48.078-28.439-.952-52.283-25.548-52.283-54.9s23.844-50.734,52.283-47.855C382.865,66.413,404.368,90.854,404.368,118.311Z" transform="translate(-129.274 -27.017)" fill="url(#linear-gradient-35)"></path><path id="Path_4011" data-name="Path 4011" d="M375.183,80.11h0a2.983,2.983,0,0,1,2.639,2.931V88.1a73.184,73.184,0,0,1,8.764,1.52q3.235.757,6.43,1.807a2.965,2.965,0,0,1,2.013,3.034l-.625,6.344a2.369,2.369,0,0,1-3.39,1.967,36.713,36.713,0,0,0-4.313-1.606,39.263,39.263,0,0,0-8.133-1.52l-.746-.057v14.477c7.612,2.128,13.193,4.99,16.812,8.6a18.088,18.088,0,0,1,5.386,13.422q0,8.7-5.954,13.944t-16.846,5.931v5.581a2.541,2.541,0,0,1-2.644,2.581h-.046a2.8,2.8,0,0,1-2.65-2.793v-5.506l-1.187-.075a76.781,76.781,0,0,1-9.751-1.044,64.092,64.092,0,0,1-6.745-1.549,2.908,2.908,0,0,1-2.117-3.006l.734-8.168a2.575,2.575,0,0,1,3.608-2.122,53.047,53.047,0,0,0,5.931,1.944,52.124,52.124,0,0,0,9.487,1.606l.046-16.106c-7.3-1.807-12.774-4.485-16.365-8.03a18.431,18.431,0,0,1-5.42-13.663q0-8.6,5.874-13.273t16.571-4.629V82.553a2.386,2.386,0,0,1,2.639-2.443Zm-2.644,19.33a8.87,8.87,0,0,0-5.277,1.858,5.414,5.414,0,0,0-1.9,4.348,5.833,5.833,0,0,0,1.755,4.319,12.341,12.341,0,0,0,5.42,2.765Zm4.68,29.161v14.77a8.216,8.216,0,0,0,5.65-1.755,6.3,6.3,0,0,0,1.962-4.973,6.792,6.792,0,0,0-1.824-4.858A13.462,13.462,0,0,0,377.219,128.6Z" transform="translate(-149.286 -34.147)" fill="url(#linear-gradient-36)"></path><path id="Path_4012" data-name="Path 4012" d="M346.589,125.241c1.652-16.324,16.634-23.236,14.7-38.253-1.2-9.252-8.22-17.053-16.06-23.139-23.735,2.489-42.084,22.141-42.084,47.843,0,29.351,23.844,53.946,52.283,54.9a50.06,50.06,0,0,0,8.082-.39C352.228,154.959,345.167,139.26,346.589,125.241Z" transform="translate(-129.262 -27.219)" opacity="0.3" fill="url(#linear-gradient-37)"></path></g></g></g></g></g></svg>